<svg width="20" height="20" viewBox="0 0 20 20" fill="none" xmlns="http://www.w3.org/2000/svg">
<path d="M7.51447 4.00004L9.46972 2.04479C9.61037 1.90418 9.8011 1.8252 9.99997 1.8252C10.1988 1.8252 10.3896 1.90418 10.5302 2.04479L12.4855 4.00004H15.25C15.4489 4.00004 15.6397 4.07905 15.7803 4.21971C15.921 4.36036 16 4.55112 16 4.75004V7.51453L17.9552 9.46979C18.0958 9.61043 18.1748 9.80116 18.1748 10C18.1748 10.1989 18.0958 10.3896 17.9552 10.5303L16 12.4855V15.25C16 15.4489 15.921 15.6397 15.7803 15.7804C15.6397 15.921 15.4489 16 15.25 16H12.4855L10.5302 17.9553C10.3896 18.0959 10.1988 18.1749 9.99997 18.1749C9.8011 18.1749 9.61037 18.0959 9.46972 17.9553L7.51447 16H4.74997C4.55106 16 4.3603 15.921 4.21964 15.7804C4.07899 15.6397 3.99997 15.4489 3.99997 15.25V12.4855L2.04472 10.5303C1.90412 10.3896 1.82513 10.1989 1.82513 10C1.82513 9.80116 1.90412 9.61043 2.04472 9.46979L3.99997 7.51453V4.75004C3.99997 4.55112 4.07899 4.36036 4.21964 4.21971C4.3603 4.07905 4.55106 4.00004 4.74997 4.00004H7.51447ZM5.49997 5.50003V8.13629L3.63622 10L5.49997 11.8638V14.5H8.13622L9.99997 16.3638L11.8637 14.5H14.5V11.8638L16.3637 10L14.5 8.13629V5.50003H11.8637L9.99997 3.63629L8.13622 5.50003H5.49997ZM9.99997 13C9.20432 13 8.44126 12.684 7.87865 12.1214C7.31604 11.5587 6.99997 10.7957 6.99997 10C6.99997 9.20438 7.31604 8.44132 7.87865 7.87871C8.44126 7.31611 9.20432 7.00003 9.99997 7.00003C10.7956 7.00003 11.5587 7.31611 12.1213 7.87871C12.6839 8.44132 13 9.20438 13 10C13 10.7957 12.6839 11.5587 12.1213 12.1214C11.5587 12.684 10.7956 13 9.99997 13ZM9.99997 11.5C10.3978 11.5 10.7793 11.342 11.0606 11.0607C11.3419 10.7794 11.5 10.3979 11.5 10C11.5 9.60221 11.3419 9.22068 11.0606 8.93937C10.7793 8.65807 10.3978 8.50003 9.99997 8.50003C9.60215 8.50003 9.22062 8.65807 8.93931 8.93937C8.65801 9.22068 8.49997 9.60221 8.49997 10C8.49997 10.3979 8.65801 10.7794 8.93931 11.0607C9.22062 11.342 9.60215 11.5 9.99997 11.5Z" fill="#5C5C5C" style="fill:#5C5C5C;fill:color(display-p3 0.3608 0.3608 0.3608);fill-opacity:1;"/>
</svg>
